Coordinates
version=1
nRows=12
nColumns=24
inDegrees=yes

Units are S.I. units (second, meters, Newtons, ...)
Angles are in degrees.

endheader
time	pelvis_tilt	pelvis_list	pelvis_rotation	pelvis_tx	pelvis_ty	pelvis_tz	hip_flexion_r	hip_adduction_r	hip_rotation_r	knee_angle_r	ankle_angle_r	subtalar_angle_r	mtp_angle_r	hip_flexion_l	hip_adduction_l	hip_rotation_l	knee_angle_l	ankle_angle_l	subtalar_angle_l	mtp_angle_l	lumbar_extension	lumbar_bending	lumbar_rotation
      4.91500000	     13.62339400	      3.56693059	     -0.94876367	      0.47335801	      0.94123099	     -0.27379929	     -3.62737525	     -7.96005749	     -6.83204749	    -64.57034819	     12.45241613	     -6.87320742	      0.00000000	     -7.62979314	      8.55084673	      2.56173703	    -14.62595859	     16.96556864	      0.42830652	      0.00000000	    -27.22026062	     -5.33595761	      0.29658431
      4.92000000	     13.65763647	      3.38669709	     -0.54074382	      0.47872844	      0.94194175	     -0.27454209	     -2.95458507	     -7.70446910	     -7.15134603	    -64.37204920	     13.11764702	     -7.01001990	      0.00000000	     -8.21457035	      8.27429637	      2.68547005	    -14.29527487	     17.17634577	      0.86217442	      0.00000000	    -27.34521402	     -4.92223753	     -0.21826872
      4.92500000	     13.66180239	      3.19725419	     -0.20746704	      0.48420829	      0.94262342	     -0.27521591	     -2.25244177	     -7.44330945	     -7.37341487	    -64.09293826	     13.74983857	     -6.96342260	      0.00000000	     -8.79520312	      7.99419379	      2.74905177	    -13.89552206	     17.30534623	      1.25607132	      0.00000000	    -27.40108799	     -4.52827413	     -0.66323678
      4.93000000	     13.71920452	      3.03890386	      0.29002730	      0.48962230	      0.94330213	     -0.27601677	     -1.66890220	     -7.20660806	     -7.79015299	    -63.70503916	     14.33615302	     -7.03425962	      0.00000000	     -9.40851736	      7.71013839	      2.93447200	    -13.55425342	     17.49319570	      1.69653154	      0.00000000	    -27.53573667	     -4.10013185	     -1.30442760
      4.93500000	     13.75231553	      2.87456569	      0.70263738	      0.49503035	      0.94390453	     -0.27674177	     -1.04770514	     -6.97172121	     -8.10557180	    -63.25846118	     14.94123428	     -6.93880297	      0.00000000	     -9.99496504	      7.42750864	      3.02673861	    -13.19306331	     17.65154731	      2.13322248	      0.00000000	    -27.63167271	     -3.70047135	     -1.82777288
      4.94000000	     13.75893089	      2.71410106	      1.08216130	      0.50041642	      0.94440259	     -0.27744102	     -0.39992357	     -6.74475768	     -8.37909262	    -62.75146513	     15.55412625	     -6.77474938	      0.00000000	    -10.54092036	      7.15160207	      3.06886994	    -12.84484060	     17.84501661	      2.57058675	      0.00000000	    -27.69459826	     -3.31533564	     -2.28848274
      4.94500000	     13.80246497	      2.57135801	      1.56997987	      0.50581841	      0.94495349	     -0.27818265	      0.15146138	     -6.52598067	     -8.76606733	    -62.12744069	     16.06353789	     -6.67751851	      0.00000000	    -11.12933012	      6.85964924	      3.20889639	    -12.49224890	     17.97199144	      3.03217937	      0.00000000	    -27.79826047	     -2.91565584	     -2.91248785
      4.95000000	     13.84800727	      2.43287830	      2.02005553	      0.51125276	      0.94543254	     -0.27891673	      0.68815884	     -6.32075442	     -9.11341226	    -61.43430170	     16.57786746	     -6.48878720	      0.00000000	    -11.72141801	      6.57742405	      3.31937789	    -12.13017687	     18.13316755	      3.45941081	      0.00000000	    -27.88703097	     -2.52942430	     -3.47319814
      4.95500000	     13.86756085	      2.30719514	      2.44973570	      0.51659815	      0.94581959	     -0.27957769	      1.25047654	     -6.12298630	     -9.42254560	    -60.68108493	     17.09874188	     -6.29052575	      0.00000000	    -12.26101845	      6.30340099	      3.37733743	    -11.80069666	     18.28743234	      3.92592368	      0.00000000	    -27.96373834	     -2.17290461	     -4.00703896
      4.96000000	     13.89442720	      2.18897565	      2.89591916	      0.52198458	      0.94616911	     -0.28024708	      1.77315627	     -5.93440735	     -9.74548950	    -59.84356040	     17.58178994	     -6.07385490	      0.00000000	    -12.81027428	      6.02852041	      3.46053147	    -11.46749816	     18.45211945	      4.37269866	      0.00000000	    -28.03406577	     -1.81849550	     -4.55714258
      4.96500000	     13.92237882	      2.08085332	      3.34271464	      0.52737311	      0.94647413	     -0.28090246	      2.27120176	     -5.75598470	    -10.06157294	    -58.92830341	     18.03856460	     -5.84381204	      0.00000000	    -13.35747299	      5.75819091	      3.54164634	    -11.13568793	     18.61441807	      4.80944416	      0.00000000	    -28.10394445	     -1.47615514	     -5.10666072
      4.97000000	     13.98402226	      1.98580448	      3.82667764	      0.53280461	      0.94678753	     -0.28158705	      2.69154280	     -5.59248852	    -10.41770692	    -57.92251170	     18.42093141	     -5.62515761	      0.00000000	    -13.94679811	      5.48429016	      3.65784334	    -10.79195420	     18.75435793	      5.22295112	      0.00000000	    -28.19606310	     -1.13090101	     -5.70950689
